<?xml version="1.0" standalone="no"?>
<!DOCTYPE svg PUBLIC "-//W3C//DTD SVG 20010904//EN"
 "http://www.w3.org/TR/2001/REC-SVG-20010904/DTD/svg10.dtd">
<svg version="1.0" xmlns="http://www.w3.org/2000/svg"
 width="700.000000pt" height="700.000000pt" viewBox="0 0 700.000000 700.000000"
 preserveAspectRatio="xMidYMid meet">
<metadata>
Created by potrace 1.14, written by Peter Selinger 2001-2017
</metadata>
<g transform="translate(0.000000,700.000000) scale(0.100000,-0.100000)"
fill="#000000" stroke="none">
<path d="M3430 6406 c-25 -6 -189 -93 -365 -193 -176 -99 -412 -232 -525 -295
-113 -64 -221 -124 -240 -135 -19 -11 -60 -34 -90 -50 -789 -442 -1221 -688
-1245 -711 -28 -26 -365 -592 -365 -613 0 -5 -4 -9 -10 -9 -5 0 -10 -4 -10 -9
0 -5 -21 -45 -47 -88 -92 -155 -110 -217 -91 -308 19 -88 86 -168 176 -208 65
-28 163 -25 242 7 13 6 15 -91 15 -831 l0 -838 28 -57 c38 -78 88 -118 273
-221 88 -48 182 -100 209 -116 220 -124 318 -179 365 -204 30 -16 60 -33 65
-37 6 -4 33 -20 60 -35 165 -92 196 -109 340 -190 66 -37 140 -79 165 -93 25
-14 148 -83 274 -154 126 -71 257 -145 290 -163 34 -18 153 -86 266 -149 112
-64 216 -117 230 -117 14 -1 39 -2 55 -3 64 -4 121 19 307 126 106 60 222 126
258 145 80 44 851 477 900 505 19 12 55 32 80 46 488 272 942 530 968 549 45
33 89 97 104 147 8 29 12 251 14 781 1 407 2 743 3 747 0 4 38 28 84 53 231
129 278 165 318 243 28 56 35 156 14 217 -8 22 -62 123 -121 225 -59 102 -114
199 -124 215 -9 17 -43 75 -75 130 -32 55 -78 136 -103 180 -65 118 -102 151
-262 237 -25 14 -211 118 -415 233 -203 114 -476 267 -605 340 -129 72 -257
144 -285 160 -27 16 -86 48 -130 73 -44 24 -100 56 -125 70 -25 14 -79 44
-120 67 -41 23 -178 101 -305 172 -126 72 -243 137 -260 145 -43 22 -132 29
-185 14z m435 -822 c154 -86 296 -166 315 -177 19 -10 166 -93 325 -182 160
-90 313 -176 341 -192 28 -15 125 -70 217 -122 92 -51 167 -96 167 -100 -1 -5
-94 -59 -379 -217 -31 -17 -204 -114 -386 -216 -181 -102 -346 -195 -365 -205
-19 -11 -160 -90 -313 -177 -153 -86 -281 -156 -283 -156 -2 0 -4 439 -4 975
l0 976 43 -25 c23 -13 168 -95 322 -182z m1891 -1220 c27 -47 64 -112 81 -144
l33 -59 -200 -115 c-206 -120 -437 -254 -468 -271 -9 -5 -38 -22 -62 -36 -638
-370 -1090 -629 -1096 -629 -5 0 -34 44 -64 97 -30 53 -67 117 -82 143 l-27
48 187 108 c103 60 196 114 207 120 11 5 61 34 110 64 50 29 108 63 130 75 22
12 67 38 100 57 143 84 301 175 315 181 8 4 29 16 45 26 75 47 207 121 215
121 5 0 10 4 12 9 2 5 26 20 53 35 28 14 57 31 65 36 8 5 71 42 140 81 69 40
150 87 180 105 30 18 60 33 66 33 6 1 33 -38 60 -85z m-4141 -139 c109 -61
202 -113 235 -132 19 -11 109 -61 200 -112 91 -51 172 -97 180 -102 8 -5 103
-58 210 -118 107 -59 213 -118 235 -131 39 -22 158 -89 260 -145 40 -23 180
-101 255 -144 22 -12 28 -1966 6 -1958 -11 5 -264 146 -446 250 -36 21 -92 52
-170 95 -25 13 -107 60 -183 103 -75 44 -139 79 -142 79 -3 0 -34 18 -70 40
-36 22 -67 40 -69 40 -2 0 -79 43 -172 96 -93 53 -191 109 -219 124 -27 15
-94 53 -149 84 -54 31 -102 56 -107 56 -5 0 -9 6 -9 13 -1 14 -1 1625 0 1820
l0 129 53 -29 c28 -16 75 -42 102 -58z m3925 -950 c1 -8 1 -216 1 -462 l1
-447 -24 -17 c-19 -14 -222 -130 -398 -227 -25 -14 -103 -58 -173 -98 -71 -41
-130 -74 -132 -74 -2 0 -26 -13 -53 -29 -26 -15 -68 -39 -93 -53 -24 -14 -225
-127 -446 -252 -222 -124 -409 -229 -418 -232 -13 -5 -15 55 -15 529 l0 535
40 -14 c58 -20 119 -23 178 -8 54 14 79 28 982 553 294 171 538 311 543 311 4
0 7 -7 7 -15z"/>
</g>
</svg>
